<?xml version="1.0" encoding="UTF-8" standalone="no"?>
<!DOCTYPE svg PUBLIC "-//W3C//DTD SVG 1.1//EN" "http://www.w3.org/Graphics/SVG/1.1/DTD/svg11.dtd">
<svg width="100%" height="100%" viewBox="0 0 370 310" version="1.1" xmlns="http://www.w3.org/2000/svg" xmlns:xlink="http://www.w3.org/1999/xlink" xml:space="preserve" xmlns:serif="http://www.serif.com/" style="fill-rule:evenodd;clip-rule:evenodd;stroke-linejoin:round;stroke-miterlimit:2;">
    <path d="M366.657,82.102L3.855,82.102L3.855,210.541L128.428,210.541L128.294,218.173L71.83,218.423L71.944,226.965L298.36,227.038L298.459,218.66L243.13,218.739L243.165,210.541L366.657,210.541L366.657,82.102Z" style="fill:rgb(232,2,0);"/>
    <g>
        <g transform="matrix(1.18165,0,0,1.18165,-21.8141,-17.231)">
            <path d="M173.799,125.753L162.949,125.753L162.949,116.762L195.027,116.762L195.027,125.753L184.177,125.753L184.177,179.694L173.799,179.694L173.799,125.753Z" style="fill:white;fill-rule:nonzero;"/>
            <rect x="200.027" y="116.762" width="10.378" height="62.931" style="fill:white;fill-rule:nonzero;"/>
            <path d="M218.141,116.762L231.161,116.762L241.256,154.431L241.445,154.431L241.445,116.762L250.69,116.762L250.69,179.694L240.029,179.694L227.576,133.754L227.387,133.754L227.387,179.694L218.141,179.694L218.141,116.762Z" style="fill:white;fill-rule:nonzero;"/>
            <path d="M273.145,180.593C268.113,180.593 264.276,179.229 261.635,176.502C258.993,173.775 257.672,169.864 257.672,164.77L257.672,131.686C257.672,126.592 258.993,122.681 261.635,119.954C264.276,117.227 268.113,115.863 273.145,115.863C278.176,115.863 282.013,117.227 284.655,119.954C287.296,122.681 288.617,126.592 288.617,131.686L288.617,137.08L278.805,137.08L278.805,131.057C278.805,126.921 277.013,124.854 273.428,124.854C269.843,124.854 268.05,126.921 268.05,131.057L268.05,165.489C268.05,169.565 269.843,171.603 273.428,171.603C277.013,171.603 278.805,169.565 278.805,165.489L278.805,153.173L273.616,153.173L273.616,144.182L288.617,144.182L288.617,164.77C288.617,169.864 287.296,173.775 284.655,176.502C282.013,179.229 278.176,180.593 273.145,180.593Z" style="fill:white;fill-rule:nonzero;"/>
            <path d="M308.807,180.593C303.775,180.593 299.97,179.229 297.391,176.502C294.813,173.775 293.523,169.864 293.523,164.77L293.523,161.174L303.335,161.174L303.335,165.489C303.335,169.565 305.128,171.603 308.713,171.603C310.474,171.603 311.811,171.108 312.723,170.119C313.635,169.13 314.091,167.527 314.091,165.309C314.091,162.672 313.462,160.35 312.204,158.342C310.946,156.334 308.619,153.922 305.222,151.105C300.945,147.509 297.957,144.257 296.259,141.351C294.561,138.444 293.712,135.162 293.712,131.506C293.712,126.532 295.033,122.681 297.674,119.954C300.316,117.227 304.153,115.863 309.185,115.863C314.153,115.863 317.912,117.227 320.459,119.954C323.006,122.681 324.28,126.592 324.28,131.686L324.28,134.293L314.468,134.293L314.468,131.057C314.468,128.899 314.028,127.326 313.147,126.337C312.267,125.348 310.977,124.854 309.279,124.854C305.82,124.854 304.09,126.861 304.09,130.877C304.09,133.155 304.735,135.282 306.024,137.26C307.313,139.238 309.656,141.635 313.053,144.452C317.393,148.048 320.38,151.315 322.016,154.252C323.651,157.188 324.469,160.635 324.469,164.59C324.469,169.745 323.132,173.7 320.459,176.457C317.786,179.214 313.902,180.593 308.807,180.593Z" style="fill:white;fill-rule:nonzero;"/>
        </g>
        <g transform="matrix(1.73454,0,0,1.73454,-133.343,-104.69)">
            <path d="M105.796,116.762L119.479,116.762C124.236,116.762 127.706,117.816 129.888,119.922C132.071,122.028 133.162,125.268 133.162,129.641L133.162,133.081C133.162,138.893 131.148,142.573 127.118,144.119L127.118,144.279C129.357,144.919 130.938,146.226 131.861,148.199C132.784,150.172 133.246,152.812 133.246,156.118L133.246,165.957C133.246,167.557 133.302,168.85 133.414,169.837C133.526,170.823 133.806,171.797 134.254,172.756L124.852,172.756C124.516,171.85 124.292,170.997 124.18,170.197C124.068,169.397 124.012,167.957 124.012,165.877L124.012,155.638C124.012,153.079 123.578,151.292 122.711,150.279C121.844,149.266 120.347,148.759 118.22,148.759L115.03,148.759L115.03,172.756L105.796,172.756L105.796,116.762ZM118.388,140.76C120.235,140.76 121.62,140.307 122.543,139.4C123.467,138.493 123.928,136.974 123.928,134.84L123.928,130.521C123.928,128.494 123.551,127.028 122.795,126.121C122.039,125.215 120.85,124.762 119.227,124.762L115.03,124.762L115.03,140.76L118.388,140.76Z" style="fill:white;fill-rule:nonzero;"/>
        </g>
        <g transform="matrix(1.0629,0,0,1.0629,74.2907,107.866)">
            <path d="M33.416,40.452L42.72,40.452L49.838,82.102L42.969,82.102L41.72,73.831L41.72,73.95L33.915,73.95L32.667,82.102L26.298,82.102L33.416,40.452ZM40.909,68.298L37.849,47.711L37.724,47.711L34.727,68.298L40.909,68.298Z" style="fill:white;fill-rule:nonzero;"/>
            <path d="M53.147,40.452L63.262,40.452C66.676,40.452 69.236,41.325 70.943,43.07C72.649,44.815 73.503,47.374 73.503,50.745L73.503,54.851C73.503,58.222 72.649,60.781 70.943,62.526C69.236,64.272 66.676,65.144 63.262,65.144L60.016,65.144L60.016,82.102L53.147,82.102L53.147,40.452ZM63.262,59.194C64.386,59.194 65.229,58.897 65.791,58.302C66.353,57.707 66.634,56.695 66.634,55.267L66.634,50.329C66.634,48.901 66.353,47.889 65.791,47.294C65.229,46.699 64.386,46.402 63.262,46.402L60.016,46.402L60.016,59.194L63.262,59.194Z" style="fill:white;fill-rule:nonzero;"/>
            <path d="M77.249,40.452L84.118,40.452L84.118,57.409L91.486,57.409L91.486,40.452L98.354,40.452L98.354,82.102L91.486,82.102L91.486,63.359L84.118,63.359L84.118,82.102L77.249,82.102L77.249,40.452Z" style="fill:white;fill-rule:nonzero;"/>
        </g>
        <g transform="matrix(0.726293,0,0,0.726293,-2.23616,60.8433)">
            <path d="M45.339,184.663C39.712,184.663 35.423,183.139 32.469,180.089C29.515,177.04 28.038,172.668 28.038,166.972L28.038,129.98C28.038,124.284 29.515,119.911 32.469,116.862C35.423,113.813 39.712,112.289 45.339,112.289C50.965,112.289 55.254,113.813 58.208,116.862C61.162,119.911 62.639,124.284 62.639,129.98L62.639,136.011L51.668,136.011L51.668,129.276C51.668,124.653 49.664,122.341 45.655,122.341C41.646,122.341 39.642,124.653 39.642,129.276L39.642,167.776C39.642,172.333 41.646,174.611 45.655,174.611C49.664,174.611 51.668,172.333 51.668,167.776L51.668,154.004L45.866,154.004L45.866,143.952L62.639,143.952L62.639,166.972C62.639,172.668 61.162,177.04 58.208,180.089C55.254,183.139 50.965,184.663 45.339,184.663Z" style="fill:white;fill-rule:nonzero;"/>
        </g>
    </g>
</svg>
