<?xml version="1.0" encoding="UTF-8" standalone="no"?>
<!DOCTYPE svg PUBLIC "-//W3C//DTD SVG 1.1//EN" "http://www.w3.org/Graphics/SVG/1.1/DTD/svg11.dtd">
<svg width="100%" height="100%" viewBox="0 0 370 310" version="1.1" xmlns="http://www.w3.org/2000/svg" xmlns:xlink="http://www.w3.org/1999/xlink" xml:space="preserve" xmlns:serif="http://www.serif.com/" style="fill-rule:evenodd;clip-rule:evenodd;stroke-linejoin:round;stroke-miterlimit:2;">
    <path d="M366.657,82.102L3.855,82.102L3.855,210.541L128.428,210.541L128.294,218.173L71.83,218.423L71.944,226.965L298.36,227.038L298.459,218.66L243.13,218.739L243.165,210.541L366.657,210.541L366.657,82.102Z" style="fill:rgb(232,2,0);"/>
    <g transform="matrix(0.962746,0,0,0.92562,-5.93595,5.08044)">
        <path d="M18.799,92.367L46.763,92.367C56.485,92.367 63.576,94.625 68.036,99.143C72.497,103.661 74.727,109.065 74.727,118.444L74.646,132.894C74.646,145.361 69.126,149.548 60.891,152.865L60.891,153.208C65.466,154.58 71.115,155.586 73.002,159.818C74.889,164.05 74.899,168.139 74.899,175.23L74.899,196.332C74.899,199.764 75.013,202.537 75.242,204.653C75.471,206.769 76.043,208.856 76.958,210.915L57.743,210.915C57.057,208.971 56.599,207.141 56.37,205.425C56.142,203.709 56.027,200.621 56.027,196.161L56.027,176.721C56.027,171.231 55.141,167.399 53.368,165.226C51.595,163.053 48.536,161.967 44.19,161.967L37.67,161.967L37.67,210.915L18.799,210.915L18.799,92.367ZM46.799,144.312C50.574,144.312 53.405,143.34 55.292,141.395C57.179,139.451 58.122,136.191 58.122,131.616L58.122,122.352C58.122,118.006 57.35,114.861 55.806,112.916C54.262,110.972 51.832,110 48.515,110L36.591,110L36.591,144.312L46.799,144.312Z" style="fill:white;fill-rule:nonzero;"/>
        <g transform="matrix(1,0,0,1,-1.03622,0)">
            <path d="M102.348,112.891L82.619,112.891L82.619,92.367L140.95,92.367L140.95,112.891L121.22,112.891L121.22,210.915L102.348,210.915L102.348,112.891Z" style="fill:white;fill-rule:nonzero;"/>
        </g>
        <rect x="150.042" y="90.823" width="18.872" height="120.092" style="fill:white;fill-rule:nonzero;"/>
        <path d="M185.174,90.823L206.657,90.823L221.56,148.785L221.903,148.785L221.903,90.823L242.17,90.823L242.17,210.915L222.784,210.915L204.421,157.63L204.078,157.63L204.078,210.915L185.174,210.915L185.174,90.823Z" style="fill:white;fill-rule:nonzero;"/>
        <path d="M283.001,210.915C273.851,210.915 266.875,208.313 262.071,203.109C257.267,197.905 254.865,190.442 254.865,180.72L254.865,122.986C254.865,113.264 257.267,105.801 262.071,100.597C266.875,95.393 273.851,92.791 283.001,92.791C292.151,92.791 299.128,95.393 303.932,100.597C308.735,105.801 311.137,113.264 311.137,122.986L311.137,131.82L293.295,131.82L293.295,124.03C293.295,116.138 290.035,112.192 283.516,112.192C276.997,112.192 273.737,116.138 273.737,124.03L273.737,180.605C273.737,188.383 276.997,192.271 283.516,192.271C290.035,192.271 293.295,188.383 293.295,180.605L293.295,160.305L283.859,160.305L283.859,143.149L311.137,143.149L311.137,180.72C311.137,190.442 308.735,197.905 303.932,203.109C299.128,208.313 292.151,210.915 283.001,210.915Z" style="fill:white;fill-rule:nonzero;"/>
        <path d="M347.851,210.915C338.701,210.915 332.456,208.313 327.767,203.109C323.078,197.905 320.733,189.039 320.733,179.317L320.733,172.455L338.868,172.455L338.868,180.689C338.868,188.467 342.542,192.466 349.061,192.466C352.264,192.466 353.934,191.953 355.593,190.066C357.251,188.179 357.458,185.982 357.458,181.75C357.458,176.717 356.315,174.001 354.027,170.169C351.74,166.338 347.508,161.734 341.332,156.359C333.554,149.496 328.122,143.292 325.034,137.745C321.945,132.197 320.401,129.619 320.401,122.643C320.401,113.15 322.803,105.801 327.607,100.597C332.411,95.393 339.387,92.791 348.537,92.791C357.573,92.791 366.134,95.393 370.766,100.597C375.398,105.801 377.714,117.081 377.714,126.803L377.714,131.778L358.145,131.778L358.145,125.602C358.145,121.484 357.344,114.665 355.743,112.778C354.142,110.891 351.797,109.947 348.709,109.947C342.418,109.947 339.273,113.779 339.273,121.442C339.273,125.788 340.445,126.164 342.79,129.939C345.135,133.713 349.395,138.288 355.571,143.663C363.463,150.526 368.896,156.759 371.87,162.363C374.843,167.968 377.798,172.829 377.798,180.377C377.798,190.213 373.9,197.762 369.039,203.023C364.178,208.284 357.115,210.915 347.851,210.915Z" style="fill:white;fill-rule:nonzero;"/>
    </g>
</svg>
